<svg width="112" height="79" viewBox="0 0 112 79" fill="none" xmlns="http://www.w3.org/2000/svg">
<g id="logos:youtube-icon" clip-path="url(#clip0_1063_3224)">
<path id="Vector" d="M109.526 12.2828C108.884 9.90874 107.631 7.74438 105.892 6.00525C104.153 4.26612 101.988 3.01289 99.6145 2.37038C90.9231 0 55.9432 0 55.9432 0C55.9432 0 20.9616 0.0717498 12.2702 2.44212C9.89612 3.08468 7.73177 4.33797 5.99271 6.07718C4.25365 7.8164 3.00056 9.98085 2.35821 12.355C-0.270728 27.7979 -1.29054 51.3293 2.4304 66.1544C3.07281 68.5285 4.32594 70.6928 6.06499 72.4319C7.80405 74.1711 9.96836 75.4243 12.3424 76.0668C21.0338 78.4372 56.0145 78.4372 56.0145 78.4372C56.0145 78.4372 90.9948 78.4372 99.6858 76.0668C102.06 75.4244 104.224 74.1712 105.963 72.432C107.703 70.6929 108.956 68.5285 109.598 66.1544C112.371 50.6896 113.226 27.1727 109.526 12.2828Z" fill="#FF0000"/>
<path id="Vector_2" d="M44.8092 56.0262L73.8277 39.2184L44.8092 22.4105V56.0262Z" fill="white"/>
</g>
<defs>
<clipPath id="clip0_1063_3224">
<rect width="112" height="78.75" fill="white"/>
</clipPath>
</defs>
</svg>
