<?xml version="1.0" encoding="UTF-8"?>
<svg id="Layer_1" data-name="Layer 1" xmlns="http://www.w3.org/2000/svg" viewBox="0 0 111.32 131.34">
  <defs>
    <style>
      .cls-1 {
        fill: #1e3050;
      }
    </style>
  </defs>
  <path class="cls-1" d="M104.27,14.1H7.05c-3.89,0-7.05-3.16-7.05-7.05S3.16,0,7.05,0h97.22c3.89,0,7.05,3.16,7.05,7.05s-3.16,7.05-7.05,7.05Z"/>
  <path class="cls-1" d="M99.12,78.47l-38.16-38.15s-.02-.02-.03-.03c-.17-.16-.34-.32-.52-.47-.09-.07-.18-.13-.27-.2-.11-.08-.21-.16-.32-.24-.11-.07-.22-.13-.33-.2-.1-.06-.2-.12-.3-.18-.11-.06-.23-.11-.34-.17-.11-.05-.21-.1-.32-.15-.11-.05-.23-.08-.34-.13-.12-.04-.23-.09-.35-.12-.11-.03-.23-.06-.35-.09-.12-.03-.24-.06-.36-.09-.14-.03-.27-.04-.41-.06-.11-.01-.21-.04-.32-.05-.49-.05-.99-.05-1.48,0-.11.01-.21.03-.32.05-.14.02-.27.04-.41.06-.12.02-.24.06-.36.09-.12.03-.23.05-.35.09-.12.04-.23.08-.35.12-.11.04-.23.08-.34.13-.11.05-.21.1-.32.15-.11.05-.23.1-.34.16-.1.06-.2.12-.31.18-.11.06-.22.13-.32.2-.11.08-.22.16-.33.24-.09.06-.17.12-.26.19-.19.16-.38.32-.55.5L12.2,78.47c-2.93,2.93-2.93,7.68,0,10.61,1.46,1.46,3.38,2.2,5.3,2.2s3.84-.73,5.3-2.2l25.35-25.35v60.11c0,4.14,3.36,7.5,7.5,7.5s7.5-3.36,7.5-7.5v-60.11l25.35,25.35c2.93,2.93,7.68,2.93,10.61,0,2.93-2.93,2.93-7.68,0-10.61Z"/>
</svg>