<?xml version="1.0" encoding="UTF-8"?>
<svg id="Layer_1" xmlns="http://www.w3.org/2000/svg" version="1.1" viewBox="0 0 111.3 131.3">
  <!-- Generator: Adobe Illustrator 29.1.0, SVG Export Plug-In . SVG Version: 2.1.0 Build 142)  -->
  <defs>
    <style>
      .st0 {
        fill: #fff;
      }
    </style>
  </defs>
  <path class="st0" d="M104.3,14.1H7.1c-3.9,0-7.1-3.2-7.1-7.1S3.2,0,7.1,0h97.2C108.2,0,111.3,3.2,111.3,7.1s-3.2,7.1-7.1,7.1Z"/>
  <path class="st0" d="M99.1,78.5l-38.2-38.2h0c-.2-.2-.3-.3-.5-.5,0,0-.2-.1-.3-.2-.1,0-.2-.2-.3-.2-.1,0-.2-.1-.3-.2,0,0-.2-.1-.3-.2-.1,0-.2-.1-.3-.2-.1,0-.2,0-.3-.2-.1,0-.2,0-.3-.1-.1,0-.2,0-.3-.1-.1,0-.2,0-.3,0s-.2,0-.4,0c-.1,0-.3,0-.4,0-.1,0-.2,0-.3,0-.5,0-1,0-1.5,0-.1,0-.2,0-.3,0-.1,0-.3,0-.4,0-.1,0-.2,0-.4,0s-.2,0-.3,0-.2,0-.3.1c-.1,0-.2,0-.3.1s-.2,0-.3.2c-.1,0-.2,0-.3.2,0,0-.2.1-.3.2s-.2.1-.3.2c-.1,0-.2.2-.3.2,0,0-.2.1-.3.2-.2.2-.4.3-.5.5L12.2,78.5c-2.9,2.9-2.9,7.7,0,10.6,1.5,1.5,3.4,2.2,5.3,2.2s3.8-.7,5.3-2.2l25.4-25.3v60.1c0,4.1,3.4,7.5,7.5,7.5s7.5-3.4,7.5-7.5v-60.1l25.3,25.3c2.9,2.9,7.7,2.9,10.6,0s2.9-7.7,0-10.6h0Z"/>
</svg>