<?xml version="1.0" encoding="UTF-8"?> <svg xmlns="http://www.w3.org/2000/svg" width="32" height="29" viewBox="0 0 32 29" fill="none"><path d="M28.0508 15.7501V8.67619L23.032 5.93488L22.702 5.75658L22.372 5.57606L19.9463 4.25221L19.4536 6.86202L18.5484 11.627H14.8403L15.4225 8.5603L12.8271 8.11901L12.1623 11.627H6.58249V10.1182L16.0024 4.97654L18.7912 6.49874L19.2862 3.89116L16.0024 2.09705L3.94934 8.67619V14.1165H11.6908L11.2524 16.4299H9.06949V18.9216H10.7786L10.1326 22.3337L9.80262 22.1532L9.4726 21.9749L6.58721 20.3992V14.7984H3.9517V21.8367L8.97755 24.5802L9.30758 24.7608L9.63761 24.9413L12.0633 26.2651L12.5584 23.6576L13.4565 18.9193H17.1646L16.5163 22.3404L19.1094 22.7794L19.8425 18.9171H25.4224V20.3947L19.7011 23.5172L19.6917 23.5684L19.628 23.5573L16.0071 25.5341L13.2231 24.0142L12.7281 26.6217L16.0071 28.4114L28.0579 21.8322V16.4254H20.3187L20.7572 14.112H22.9825V11.6203H21.2287L21.8816 8.17919L22.2117 8.35749L22.5417 8.53801L25.42 10.1092V15.7412H28.0555L28.0508 15.7501ZM17.6337 16.4299H13.9256L14.2085 14.9411L14.3664 14.1165H18.0745L17.6337 16.4299Z" fill="#FFDE96"></path><path d="M3.86445 25.0528C3.71594 25.1865 3.72065 25.4161 3.87624 25.5587L4.90639 26.526C5.05962 26.6686 5.30008 26.6708 5.44152 26.5304L7.49005 24.5736L5.54052 23.5083L3.86681 25.0528H3.86445Z" fill="#FFDE96"></path><path d="M6.56126 5.14601L7.18359 4.56209C7.34861 4.40831 7.35568 4.16092 7.20246 4.01383L7.10344 3.918C9.18969 2.18406 11.2288 0.873581 12.1529 0.240628C12.3014 0.138108 12.2189 -0.0446461 12.0539 0.0133003C9.36413 0.9449 7.35804 1.65363 5.75976 2.63649L5.57117 2.45819C5.41559 2.3111 5.15628 2.31555 4.99127 2.46934L2.66457 4.65347C2.49956 4.80725 2.49248 5.05241 2.64571 5.20173L2.84137 5.38894C1.77114 6.94235 0.986147 8.90361 0.0125648 11.3128C-0.0510834 11.4711 0.142216 11.5491 0.253011 11.4087C0.896565 10.5841 2.37698 8.60051 4.18741 6.66822L4.28171 6.75737C4.43729 6.90446 4.6966 6.90001 4.86161 6.744L5.36608 6.27151L6.13693 7.00921L7.67628 6.16899L6.56597 5.14601H6.56126Z" fill="#FFDE96"></path><path d="M31.9875 11.3061C31.0116 8.89686 30.229 6.9356 29.1564 5.38219L29.352 5.19498C29.5076 5.04788 29.4982 4.80272 29.3332 4.64671L27.0065 2.46481C26.8415 2.31103 26.5822 2.30434 26.4266 2.45367L26.238 2.63196C24.6374 1.6491 22.6312 0.942602 19.9415 0.0110028C19.7742 -0.0469436 19.6916 0.138039 19.8425 0.238331C20.7642 0.871284 22.8057 2.18176 24.8919 3.91347L24.7929 4.0093C24.6373 4.1564 24.6468 4.40156 24.8118 4.55757L25.4341 5.14149L24.3191 6.16892L25.8585 7.00914L26.634 6.26698L27.1385 6.73947C27.3035 6.89325 27.5628 6.89994 27.7184 6.75284L27.8127 6.66369C29.6231 8.59375 31.1035 10.5773 31.7471 11.4019C31.8555 11.5423 32.0512 11.4621 31.9875 11.3061Z" fill="#FFDE96"></path><path d="M26.5609 26.5259C26.7024 26.6664 26.9428 26.6641 27.096 26.5215L28.1262 25.5542C28.2794 25.4116 28.2841 25.182 28.138 25.0483L26.4619 23.5016L24.5124 24.5669L26.5633 26.5282L26.5609 26.5259Z" fill="#FFDE96"></path></svg> 